<svg
  width="212"
  height="212"
  viewBox="0 0 212 212"
  fill="none"
  xmlns="http://www.w3.org/2000/svg"
>
  <g clip-path="url(#clip0_3025_25)">
    <circle cx="106" cy="106" r="106" fill="url(#paint0_radial_3025_25)" />
    <g filter="url(#filter0_d_3025_25)">
      <path
        d="M81.1025 88.6017H59.8103V82.067C59.8103 79.0175 59.538 77.0752 58.9935 76.2402C58.4489 75.4052 57.5413 74.9877 56.2707 74.9877C54.8911 74.9877 53.8383 75.5504 53.1123 76.6759C52.4225 77.8013 52.0776 79.5076 52.0776 81.7947C52.0776 84.7353 52.4769 86.9498 53.2756 88.4383C54.038 89.9267 56.1981 91.7238 59.7558 93.8294C69.9572 99.8921 76.383 104.866 79.0331 108.75C81.6833 112.635 83.0084 118.897 83.0084 127.537C83.0084 133.818 82.2642 138.447 80.7757 141.424C79.3236 144.401 76.4919 146.905 72.2806 148.939C68.0694 150.935 63.1684 151.934 57.5776 151.934C51.4423 151.934 46.1964 150.772 41.8399 148.448C37.5198 146.125 34.6881 143.166 33.3449 139.572C32.0016 135.978 31.33 130.877 31.33 124.27V118.498H52.6222V129.226C52.6222 132.529 52.9126 134.653 53.4934 135.597C54.1106 136.541 55.1816 137.013 56.7063 137.013C58.2311 137.013 59.3565 136.414 60.0826 135.216C60.845 134.018 61.2261 132.239 61.2261 129.879C61.2261 124.688 60.5182 121.293 59.1024 119.696C57.6502 118.098 54.0743 115.43 48.3746 111.691C42.6749 107.915 38.8993 105.174 37.0478 103.468C35.1963 101.762 33.6534 99.402 32.4191 96.3888C31.2211 93.3756 30.6221 89.5274 30.6221 84.8442C30.6221 78.0917 31.4752 73.1544 33.1815 70.0323C34.9241 66.9102 37.7195 64.4778 41.5677 62.7352C45.4159 60.9563 50.0627 60.0669 55.5083 60.0669C61.4621 60.0669 66.5265 61.0289 70.7014 62.953C74.9127 64.8771 77.6899 67.3095 79.0331 70.2501C80.4127 73.1544 81.1025 78.1099 81.1025 85.1165V88.6017Z"
        fill="white"
      />
    </g>
    <g filter="url(#filter1_d_3025_25)">
      <path
        d="M129.556 61.918H152.427C159.651 61.918 165.115 62.4807 168.818 63.6061C172.557 64.7315 175.571 67.0186 177.858 70.4675C180.145 73.8801 181.289 79.3982 181.289 87.022C181.289 92.1772 180.472 95.7712 178.838 97.8042C177.241 99.8372 174.064 101.398 169.308 102.487C174.609 103.685 178.203 105.682 180.091 108.478C181.978 111.237 182.922 115.484 182.922 121.22V129.389C182.922 135.342 182.232 139.753 180.853 142.621C179.51 145.489 177.35 147.45 174.373 148.502C171.396 149.555 165.297 150.082 156.076 150.082H129.556V61.918ZM152.481 77.0022V96.6062C153.462 96.5699 154.224 96.5518 154.769 96.5518C157.019 96.5518 158.453 96.0072 159.071 94.9181C159.688 93.7927 159.996 90.6161 159.996 85.3883C159.996 82.6293 159.742 80.7052 159.234 79.6161C158.726 78.4906 158.054 77.7827 157.219 77.4923C156.42 77.2019 154.841 77.0385 152.481 77.0022ZM152.481 110.329V134.997C155.713 134.889 157.764 134.38 158.635 133.473C159.543 132.565 159.996 130.332 159.996 126.775V118.552C159.996 114.776 159.597 112.489 158.798 111.69C158 110.892 155.894 110.438 152.481 110.329Z"
        fill="white"
      />
    </g>
    <g filter="url(#filter2_d_3025_25)">
      <path
        d="M122.916 100.237V112.036C122.916 116.368 122.698 119.55 122.263 121.583C121.827 123.592 120.895 125.48 119.467 127.247C118.039 128.989 116.2 130.284 113.949 131.131C111.722 131.954 109.157 132.366 106.253 132.366C103.01 132.366 100.263 132.015 98.0117 131.313C95.7609 130.587 94.0062 129.51 92.7477 128.082C91.5134 126.63 90.63 124.887 90.0975 122.854C89.5651 120.797 89.2988 117.723 89.2988 113.633V101.29C89.2988 96.8122 89.7829 93.3149 90.751 90.7979C91.7191 88.2808 93.4617 86.2599 95.9787 84.7351C98.4958 83.2104 101.715 82.448 105.636 82.448C108.927 82.448 111.747 82.9441 114.094 83.9365C116.466 84.9046 118.293 86.1752 119.576 87.7483C120.859 89.3215 121.73 90.9431 122.19 92.6131C122.674 94.283 122.916 96.8243 122.916 100.237ZM108.249 96.6065C108.249 94.1378 108.116 92.5888 107.85 91.9596C107.584 91.3061 107.015 90.9794 106.144 90.9794C105.272 90.9794 104.692 91.3061 104.401 91.9596C104.111 92.5888 103.966 94.1378 103.966 96.6065V118.352C103.966 120.627 104.111 122.116 104.401 122.818C104.692 123.495 105.26 123.834 106.107 123.834C106.979 123.834 107.548 123.52 107.814 122.89C108.104 122.261 108.249 120.906 108.249 118.824V96.6065Z"
        fill="#E1A302"
      />
    </g>
  </g>
  <defs>
    <filter
      id="filter0_d_3025_25"
      x="26.6221"
      y="60.0669"
      width="60.3862"
      height="99.8667"
      filterUnits="userSpaceOnUse"
      color-interpolation-filters="sRGB"
    >
      <feFlood flood-opacity="0" result="BackgroundImageFix" />
      <feColorMatrix
        in="SourceAlpha"
        type="matrix"
        values="0 0 0 0 0 0 0 0 0 0 0 0 0 0 0 0 0 0 127 0"
        result="hardAlpha"
      />
      <feOffset dy="4" />
      <feGaussianBlur stdDeviation="2" />
      <feComposite in2="hardAlpha" operator="out" />
      <feColorMatrix
        type="matrix"
        values="0 0 0 0 0 0 0 0 0 0 0 0 0 0 0 0 0 0 0.25 0"
      />
      <feBlend
        mode="normal"
        in2="BackgroundImageFix"
        result="effect1_dropShadow_3025_25"
      />
      <feBlend
        mode="normal"
        in="SourceGraphic"
        in2="effect1_dropShadow_3025_25"
        result="shape"
      />
    </filter>
    <filter
      id="filter1_d_3025_25"
      x="125.556"
      y="61.918"
      width="61.3665"
      height="96.1636"
      filterUnits="userSpaceOnUse"
      color-interpolation-filters="sRGB"
    >
      <feFlood flood-opacity="0" result="BackgroundImageFix" />
      <feColorMatrix
        in="SourceAlpha"
        type="matrix"
        values="0 0 0 0 0 0 0 0 0 0 0 0 0 0 0 0 0 0 127 0"
        result="hardAlpha"
      />
      <feOffset dy="4" />
      <feGaussianBlur stdDeviation="2" />
      <feComposite in2="hardAlpha" operator="out" />
      <feColorMatrix
        type="matrix"
        values="0 0 0 0 0 0 0 0 0 0 0 0 0 0 0 0 0 0 0.25 0"
      />
      <feBlend
        mode="normal"
        in2="BackgroundImageFix"
        result="effect1_dropShadow_3025_25"
      />
      <feBlend
        mode="normal"
        in="SourceGraphic"
        in2="effect1_dropShadow_3025_25"
        result="shape"
      />
    </filter>
    <filter
      id="filter2_d_3025_25"
      x="85.2988"
      y="82.448"
      width="41.6172"
      height="57.9177"
      filterUnits="userSpaceOnUse"
      color-interpolation-filters="sRGB"
    >
      <feFlood flood-opacity="0" result="BackgroundImageFix" />
      <feColorMatrix
        in="SourceAlpha"
        type="matrix"
        values="0 0 0 0 0 0 0 0 0 0 0 0 0 0 0 0 0 0 127 0"
        result="hardAlpha"
      />
      <feOffset dy="4" />
      <feGaussianBlur stdDeviation="2" />
      <feComposite in2="hardAlpha" operator="out" />
      <feColorMatrix
        type="matrix"
        values="0 0 0 0 0 0 0 0 0 0 0 0 0 0 0 0 0 0 0.25 0"
      />
      <feBlend
        mode="normal"
        in2="BackgroundImageFix"
        result="effect1_dropShadow_3025_25"
      />
      <feBlend
        mode="normal"
        in="SourceGraphic"
        in2="effect1_dropShadow_3025_25"
        result="shape"
      />
    </filter>
    <radialGradient
      id="paint0_radial_3025_25"
      cx="0"
      cy="0"
      r="1"
      gradientUnits="userSpaceOnUse"
      gradientTransform="translate(106 106) rotate(90) scale(106)"
    >
      <stop stop-color="#E1A302" />
      <stop offset="0.480769" stop-color="#010744" />
      <stop offset="1" stop-color="#020525" />
    </radialGradient>
    <clipPath id="clip0_3025_25">
      <rect width="212" height="212" fill="white" />
    </clipPath>
  </defs>
</svg>
